<?xml version="1.0" encoding="iso-8859-1"?>
<!-- Generator: Adobe Illustrator 21.0.0, SVG Export Plug-In . SVG Version: 6.00 Build 0)  -->
<svg xmlns="http://www.w3.org/2000/svg"
    xmlns:xlink="http://www.w3.org/1999/xlink" version="1.1" id="Capa_1" x="0px" y="0px" viewBox="0 0 512 512" style="enable-background:new 0 0 512 512;" xml:space="preserve" width="512" height="512">
    <g>
        <g>
            <path style="fill:#FE5857;" d="M256,0c-76.888,0-139.44,62.552-139.44,139.439c0,47.891,58.183,153.137,106.992,232.994    c6.966,11.398,19.096,18.201,32.448,18.201c13.353,0,25.482-6.804,32.448-18.201c48.81-79.857,106.992-185.103,106.992-232.994    C395.44,62.552,332.888,0,256,0z M256,185.911c-30.904,0-56.047-25.142-56.047-56.046c0-30.903,25.143-56.045,56.047-56.045    s56.047,25.142,56.047,56.045C312.047,160.77,286.904,185.911,256,185.911z"/>
            <path style="fill:#DB0253;" d="M256,0c-0.001,0-0.003,0-0.004,0v73.82c0.001,0,0.003,0,0.004,0    c30.904,0,56.047,25.142,56.047,56.045c0,30.904-25.143,56.046-56.047,56.046c-0.001,0-0.003,0-0.004,0v204.723    c0.001,0,0.003,0,0.004,0c13.353,0,25.482-6.804,32.448-18.201c48.81-79.857,106.992-185.103,106.992-232.994    C395.44,62.552,332.888,0,256,0z"/>
        </g>
    </g>
</svg>